<svg xmlns="http://www.w3.org/2000/svg" xmlns:xlink="http://www.w3.org/1999/xlink" width="605" zoomAndPan="magnify" viewBox="0 0 453.75 295.499996" height="394" preserveAspectRatio="xMidYMid meet" version="1.0"><defs><clipPath id="2fbd59b6f8"><path d="M 32 31 L 263 31 L 263 263 L 32 263 Z M 32 31 " clip-rule="nonzero"/></clipPath><clipPath id="83a8ff1695"><path d="M 64.738281 0 L 294.726562 64.4375 L 230.289062 294.425781 L 0.300781 229.988281 Z M 64.738281 0 " clip-rule="nonzero"/></clipPath><clipPath id="db9a10fe73"><path d="M 64.738281 0 L 294.726562 64.4375 L 230.289062 294.425781 L 0.300781 229.988281 Z M 64.738281 0 " clip-rule="nonzero"/></clipPath><clipPath id="c038a31b34"><path d="M 98 106 L 204 106 L 204 165 L 98 165 Z M 98 106 " clip-rule="nonzero"/></clipPath><clipPath id="1519bdba63"><path d="M 64.738281 0 L 294.726562 64.4375 L 230.289062 294.425781 L 0.300781 229.988281 Z M 64.738281 0 " clip-rule="nonzero"/></clipPath><clipPath id="c587044ad9"><path d="M 64.738281 0 L 294.726562 64.4375 L 230.289062 294.425781 L 0.300781 229.988281 Z M 64.738281 0 " clip-rule="nonzero"/></clipPath><clipPath id="6c8df74d28"><path d="M 75 131 L 214 131 L 214 188 L 75 188 Z M 75 131 " clip-rule="nonzero"/></clipPath><clipPath id="dd6a017656"><path d="M 64.738281 0 L 294.726562 64.4375 L 230.289062 294.425781 L 0.300781 229.988281 Z M 64.738281 0 " clip-rule="nonzero"/></clipPath><clipPath id="b8cceb44ee"><path d="M 64.738281 0 L 294.726562 64.4375 L 230.289062 294.425781 L 0.300781 229.988281 Z M 64.738281 0 " clip-rule="nonzero"/></clipPath><clipPath id="0fa1d74b8c"><path d="M 106 114 L 196 114 L 196 157 L 106 157 Z M 106 114 " clip-rule="nonzero"/></clipPath><clipPath id="d5b41b736f"><path d="M 64.738281 0 L 294.726562 64.4375 L 230.289062 294.425781 L 0.300781 229.988281 Z M 64.738281 0 " clip-rule="nonzero"/></clipPath><clipPath id="7b7b379833"><path d="M 64.738281 0 L 294.726562 64.4375 L 230.289062 294.425781 L 0.300781 229.988281 Z M 64.738281 0 " clip-rule="nonzero"/></clipPath><clipPath id="fd454cc2ff"><path d="M 122 141 L 172 141 L 172 168 L 122 168 Z M 122 141 " clip-rule="nonzero"/></clipPath><clipPath id="9c214e63a6"><path d="M 64.738281 0 L 294.726562 64.4375 L 230.289062 294.425781 L 0.300781 229.988281 Z M 64.738281 0 " clip-rule="nonzero"/></clipPath><clipPath id="3f905e4725"><path d="M 64.738281 0 L 294.726562 64.4375 L 230.289062 294.425781 L 0.300781 229.988281 Z M 64.738281 0 " clip-rule="nonzero"/></clipPath><clipPath id="ac2913d8b6"><path d="M 219 38 L 428 38 L 428 265 L 219 265 Z M 219 38 " clip-rule="nonzero"/></clipPath><clipPath id="a7d1af6aaa"><path d="M 199.660156 61.210938 L 405.25 16.511719 L 452.496094 233.808594 L 246.902344 278.507812 Z M 199.660156 61.210938 " clip-rule="nonzero"/></clipPath><clipPath id="a01dafe0a0"><path d="M 199.660156 61.210938 L 405.25 16.511719 L 452.496094 233.808594 L 246.902344 278.507812 Z M 199.660156 61.210938 " clip-rule="nonzero"/></clipPath><clipPath id="fa2834daaa"><path d="M 278 107 L 369 107 L 369 161 L 278 161 Z M 278 107 " clip-rule="nonzero"/></clipPath><clipPath id="ad3304a062"><path d="M 199.660156 61.210938 L 405.25 16.511719 L 452.496094 233.808594 L 246.902344 278.507812 Z M 199.660156 61.210938 " clip-rule="nonzero"/></clipPath><clipPath id="62ac27960b"><path d="M 199.660156 61.210938 L 405.25 16.511719 L 452.496094 233.808594 L 246.902344 278.507812 Z M 199.660156 61.210938 " clip-rule="nonzero"/></clipPath><clipPath id="aa2a27daf1"><path d="M 265 135 L 392 135 L 392 185 L 265 185 Z M 265 135 " clip-rule="nonzero"/></clipPath><clipPath id="44a32615d6"><path d="M 199.660156 61.210938 L 405.25 16.511719 L 452.496094 233.808594 L 246.902344 278.507812 Z M 199.660156 61.210938 " clip-rule="nonzero"/></clipPath><clipPath id="8e2f083500"><path d="M 199.660156 61.210938 L 405.25 16.511719 L 452.496094 233.808594 L 246.902344 278.507812 Z M 199.660156 61.210938 " clip-rule="nonzero"/></clipPath><clipPath id="5284539384"><path d="M 285 146 L 375 146 L 375 184 L 285 184 Z M 285 146 " clip-rule="nonzero"/></clipPath><clipPath id="9d98366ca6"><path d="M 199.660156 61.210938 L 405.25 16.511719 L 452.496094 233.808594 L 246.902344 278.507812 Z M 199.660156 61.210938 " clip-rule="nonzero"/></clipPath><clipPath id="6d45f5eef7"><path d="M 199.660156 61.210938 L 405.25 16.511719 L 452.496094 233.808594 L 246.902344 278.507812 Z M 199.660156 61.210938 " clip-rule="nonzero"/></clipPath><clipPath id="3d2dd0b78d"><path d="M 286 115 L 360 115 L 360 153 L 286 153 Z M 286 115 " clip-rule="nonzero"/></clipPath><clipPath id="df7a4b4768"><path d="M 199.660156 61.210938 L 405.25 16.511719 L 452.496094 233.808594 L 246.902344 278.507812 Z M 199.660156 61.210938 " clip-rule="nonzero"/></clipPath><clipPath id="a0e6af579c"><path d="M 199.660156 61.210938 L 405.25 16.511719 L 452.496094 233.808594 L 246.902344 278.507812 Z M 199.660156 61.210938 " clip-rule="nonzero"/></clipPath></defs><g clip-path="url(#2fbd59b6f8)"><g clip-path="url(#83a8ff1695)"><g clip-path="url(#db9a10fe73)"><path fill="#3a5dc4" d="M 257.039062 182.160156 L 129.992188 260.855469 C 124.101562 264.507812 116.367188 262.667969 112.714844 256.777344 L 34.019531 129.734375 C 30.367188 123.84375 32.207031 116.105469 38.09375 112.453125 L 165.140625 33.761719 C 171.027344 30.109375 178.765625 31.949219 182.417969 37.835938 L 261.113281 164.882812 C 264.765625 170.769531 262.925781 178.507812 257.039062 182.160156 Z M 257.039062 182.160156 " fill-opacity="1" fill-rule="nonzero"/></g></g></g><g clip-path="url(#c038a31b34)"><g clip-path="url(#1519bdba63)"><g clip-path="url(#c587044ad9)"><path fill="#ffffff" d="M 138.574219 132.679688 C 135.507812 143.628906 124.167969 149.960938 113.269531 146.910156 C 102.375 143.855469 95.992188 132.503906 99.042969 121.605469 C 102.097656 110.710938 113.449219 104.324219 124.347656 107.378906 C 135.242188 110.429688 141.640625 121.734375 138.574219 132.679688 Z M 188.464844 124.140625 C 177.515625 121.074219 166.214844 127.472656 163.160156 138.367188 C 160.109375 149.265625 166.492188 160.617188 177.390625 163.671875 C 188.285156 166.722656 199.636719 160.339844 202.691406 149.445312 C 205.746094 138.546875 199.410156 127.207031 188.464844 124.140625 Z M 188.464844 124.140625 " fill-opacity="1" fill-rule="nonzero"/></g></g></g><g clip-path="url(#6c8df74d28)"><g clip-path="url(#dd6a017656)"><g clip-path="url(#b8cceb44ee)"><path fill="#ff7f1d" d="M 212.683594 178.152344 C 210.78125 184.941406 203.777344 188.882812 196.984375 186.980469 C 190.195312 185.078125 186.253906 178.070312 188.15625 171.277344 C 190.058594 164.488281 197.066406 160.546875 203.855469 162.449219 C 210.613281 164.289062 214.589844 171.359375 212.683594 178.152344 Z M 91.355469 132.078125 C 84.5625 130.175781 77.554688 134.113281 75.652344 140.90625 C 73.75 147.695312 77.691406 154.703125 84.480469 156.605469 C 91.273438 158.507812 98.28125 154.570312 100.183594 147.777344 C 102.085938 140.988281 98.144531 133.980469 91.355469 132.078125 Z M 91.355469 132.078125 " fill-opacity="1" fill-rule="nonzero"/></g></g></g><g clip-path="url(#0fa1d74b8c)"><g clip-path="url(#d5b41b736f)"><g clip-path="url(#7b7b379833)"><path fill="#2e2e2e" d="M 130.871094 130.523438 C 129.011719 137.164062 122.066406 141.066406 115.429688 139.207031 C 108.789062 137.34375 104.886719 130.402344 106.746094 123.765625 C 108.605469 117.125 115.550781 113.222656 122.1875 115.082031 C 128.828125 116.941406 132.746094 123.832031 130.871094 130.523438 Z M 186.304688 131.84375 C 179.667969 129.984375 172.726562 133.886719 170.863281 140.527344 C 169.003906 147.164062 172.90625 154.105469 179.546875 155.96875 C 186.1875 157.828125 193.128906 153.925781 194.988281 147.285156 C 196.847656 140.644531 192.945312 133.703125 186.304688 131.84375 Z M 186.304688 131.84375 " fill-opacity="1" fill-rule="nonzero"/></g></g></g><g clip-path="url(#fd454cc2ff)"><g clip-path="url(#9c214e63a6)"><g clip-path="url(#3f905e4725)"><path fill="#2e2e2e" d="M 142.925781 166.3125 C 142.46875 166.183594 142.011719 166.058594 141.570312 165.878906 C 128.882812 161.613281 123.375 149.082031 123.132812 148.578125 C 122.042969 146.03125 123.214844 143.027344 125.757812 141.9375 C 128.304688 140.84375 131.3125 142.015625 132.402344 144.5625 C 132.511719 144.757812 136.488281 153.578125 144.839844 156.355469 C 150.34375 158.171875 156.722656 157.058594 163.921875 153.011719 C 166.390625 151.625 169.429688 152.476562 170.816406 154.941406 C 172.203125 157.40625 171.351562 160.449219 168.882812 161.835938 C 159.65625 167.066406 150.933594 168.554688 142.925781 166.3125 Z M 142.925781 166.3125 " fill-opacity="1" fill-rule="nonzero"/></g></g></g><g clip-path="url(#ac2913d8b6)"><g clip-path="url(#a7d1af6aaa)"><g clip-path="url(#a01dafe0a0)"><path fill="#ffc544" d="M 407.136719 162.636719 C 416.789062 169.09375 424.039062 179.160156 426.699219 191.386719 C 432.164062 216.519531 416.203125 241.351562 391.070312 246.816406 C 372.171875 250.925781 353.476562 242.941406 343.050781 228.050781 C 339.324219 245.359375 325.867188 259.828125 307.40625 263.839844 C 282.273438 269.304688 257.441406 253.34375 251.976562 228.210938 C 249.378906 216.273438 251.65625 204.390625 257.382812 194.640625 C 239.753906 191.082031 225.003906 177.484375 220.945312 158.828125 C 215.484375 133.695312 231.445312 108.863281 256.578125 103.398438 C 260.445312 102.558594 264.269531 102.234375 268 102.386719 C 266.996094 99.871094 266.128906 97.273438 265.539062 94.566406 C 260.074219 69.433594 276.039062 44.605469 301.171875 39.140625 C 326.304688 33.675781 351.132812 49.636719 356.597656 74.769531 C 357.261719 77.816406 357.613281 80.828125 357.652344 83.804688 C 361.78125 81.386719 366.339844 79.535156 371.320312 78.453125 C 396.453125 72.988281 421.285156 88.949219 426.746094 114.085938 C 430.871094 133.28125 422.507812 152.3125 407.136719 162.636719 Z M 407.136719 162.636719 " fill-opacity="1" fill-rule="nonzero"/></g></g></g><g clip-path="url(#fa2834daaa)"><g clip-path="url(#ad3304a062)"><g clip-path="url(#62ac27960b)"><path fill="#f5f5ef" d="M 321.28125 134.433594 C 323.84375 146.226562 316.347656 157.828125 304.601562 160.382812 C 292.855469 162.933594 281.207031 155.445312 278.652344 143.699219 C 276.097656 131.957031 283.585938 120.304688 295.332031 117.753906 C 307.078125 115.199219 318.726562 122.6875 321.28125 134.433594 Z M 341.972656 107.613281 C 330.179688 110.175781 322.738281 121.816406 325.292969 133.558594 C 327.847656 145.304688 339.496094 152.792969 351.242188 150.242188 C 362.988281 147.6875 370.476562 136.035156 367.921875 124.292969 C 365.367188 112.546875 353.71875 105.058594 341.972656 107.613281 Z M 341.972656 107.613281 " fill-opacity="1" fill-rule="nonzero"/></g></g></g><g clip-path="url(#aa2a27daf1)"><g clip-path="url(#44a32615d6)"><g clip-path="url(#8e2f083500)"><path fill="#ff7f1d" d="M 391.523438 146.242188 C 393.109375 153.539062 388.457031 160.777344 381.160156 162.363281 C 373.863281 163.949219 366.625 159.296875 365.039062 152 C 363.453125 144.703125 368.105469 137.464844 375.402344 135.878906 C 382.699219 134.289062 389.9375 138.941406 391.523438 146.242188 Z M 276.621094 157.40625 C 269.320312 158.992188 264.667969 166.230469 266.257812 173.527344 C 267.84375 180.824219 275.082031 185.476562 282.378906 183.890625 C 289.675781 182.304688 294.328125 175.066406 292.742188 167.769531 C 291.144531 160.421875 283.964844 155.808594 276.621094 157.40625 Z M 276.621094 157.40625 " fill-opacity="1" fill-rule="nonzero"/></g></g></g><g clip-path="url(#5284539384)"><g clip-path="url(#9d98366ca6)"><g clip-path="url(#6d45f5eef7)"><path fill="#2e2e2e" d="M 334.800781 181.707031 C 315.078125 185.992188 297.195312 178.695312 287.972656 173.765625 C 285.398438 172.402344 284.453125 169.214844 285.816406 166.640625 C 287.179688 164.066406 290.367188 163.121094 292.941406 164.484375 C 308.808594 172.980469 339.234375 182.3125 365.148438 148.785156 C 366.925781 146.476562 370.226562 146.0625 372.535156 147.839844 C 374.84375 149.613281 375.257812 152.914062 373.484375 155.226562 C 361.054688 171.390625 347.511719 178.941406 334.800781 181.707031 Z M 334.800781 181.707031 " fill-opacity="1" fill-rule="nonzero"/></g></g></g><g clip-path="url(#3d2dd0b78d)"><g clip-path="url(#df7a4b4768)"><g clip-path="url(#a0e6af579c)"><path fill="#2e2e2e" d="M 312.917969 136.25 C 314.476562 143.402344 309.945312 150.511719 302.746094 152.078125 C 295.59375 153.632812 288.484375 149.105469 286.917969 141.902344 C 285.351562 134.703125 289.890625 127.640625 297.089844 126.074219 C 304.292969 124.511719 311.363281 129.097656 312.917969 136.25 Z M 343.78125 115.925781 C 336.628906 117.480469 332.039062 124.550781 333.605469 131.753906 C 335.171875 138.953125 342.234375 143.492188 349.433594 141.929688 C 356.585938 140.371094 361.175781 133.300781 359.609375 126.097656 C 358.042969 118.898438 350.933594 114.371094 343.78125 115.925781 Z M 343.78125 115.925781 " fill-opacity="1" fill-rule="nonzero"/></g></g></g></svg>