<svg xmlns="http://www.w3.org/2000/svg" xmlns:xlink="http://www.w3.org/1999/xlink" width="599" zoomAndPan="magnify" viewBox="0 0 449.25 491.999982" height="656" preserveAspectRatio="xMidYMid meet" version="1.0"><defs><clipPath id="fd6b664ec3"><path d="M 157 12 L 311 12 L 311 179 L 157 179 Z M 157 12 " clip-rule="nonzero"/></clipPath><clipPath id="54ca7bbfff"><path d="M 169.871094 0.410156 L 321.328125 25.335938 L 295.0625 184.917969 L 143.605469 159.992188 Z M 169.871094 0.410156 " clip-rule="nonzero"/></clipPath><clipPath id="10111d55f3"><path d="M 169.871094 0.410156 L 321.328125 25.335938 L 295.0625 184.917969 L 143.605469 159.992188 Z M 169.871094 0.410156 " clip-rule="nonzero"/></clipPath><clipPath id="fdd9d398d2"><path d="M 201 64 L 268 64 L 268 102 L 201 102 Z M 201 64 " clip-rule="nonzero"/></clipPath><clipPath id="edbf769a3b"><path d="M 169.871094 0.410156 L 321.328125 25.335938 L 295.0625 184.917969 L 143.605469 159.992188 Z M 169.871094 0.410156 " clip-rule="nonzero"/></clipPath><clipPath id="744f1e6d58"><path d="M 169.871094 0.410156 L 321.328125 25.335938 L 295.0625 184.917969 L 143.605469 159.992188 Z M 169.871094 0.410156 " clip-rule="nonzero"/></clipPath><clipPath id="11d82acece"><path d="M 184 86 L 278 86 L 278 118 L 184 118 Z M 184 86 " clip-rule="nonzero"/></clipPath><clipPath id="7781d01402"><path d="M 169.871094 0.410156 L 321.328125 25.335938 L 295.0625 184.917969 L 143.605469 159.992188 Z M 169.871094 0.410156 " clip-rule="nonzero"/></clipPath><clipPath id="62db9f181f"><path d="M 169.871094 0.410156 L 321.328125 25.335938 L 295.0625 184.917969 L 143.605469 159.992188 Z M 169.871094 0.410156 " clip-rule="nonzero"/></clipPath><clipPath id="dd45f8dca0"><path d="M 198 94 L 265 94 L 265 120 L 198 120 Z M 198 94 " clip-rule="nonzero"/></clipPath><clipPath id="6a7a43bd51"><path d="M 169.871094 0.410156 L 321.328125 25.335938 L 295.0625 184.917969 L 143.605469 159.992188 Z M 169.871094 0.410156 " clip-rule="nonzero"/></clipPath><clipPath id="ecad281b10"><path d="M 169.871094 0.410156 L 321.328125 25.335938 L 295.0625 184.917969 L 143.605469 159.992188 Z M 169.871094 0.410156 " clip-rule="nonzero"/></clipPath><clipPath id="a5aa52fa62"><path d="M 207 70 L 262 70 L 262 96 L 207 96 Z M 207 70 " clip-rule="nonzero"/></clipPath><clipPath id="28fda615f9"><path d="M 169.871094 0.410156 L 321.328125 25.335938 L 295.0625 184.917969 L 143.605469 159.992188 Z M 169.871094 0.410156 " clip-rule="nonzero"/></clipPath><clipPath id="74cb217443"><path d="M 169.871094 0.410156 L 321.328125 25.335938 L 295.0625 184.917969 L 143.605469 159.992188 Z M 169.871094 0.410156 " clip-rule="nonzero"/></clipPath><clipPath id="663e632868"><path d="M 314 24 L 409 24 L 409 142 L 314 142 Z M 314 24 " clip-rule="nonzero"/></clipPath><clipPath id="e548ba49a9"><path d="M 303.457031 41.351562 L 376.964844 13.464844 L 419.457031 125.476562 L 345.949219 153.363281 Z M 303.457031 41.351562 " clip-rule="nonzero"/></clipPath><clipPath id="332908b57e"><path d="M 303.457031 41.351562 L 376.964844 13.464844 L 419.457031 125.476562 L 345.949219 153.363281 Z M 303.457031 41.351562 " clip-rule="nonzero"/></clipPath><clipPath id="7d426e5a87"><path d="M 325 51 L 385 51 L 385 83 L 325 83 Z M 325 51 " clip-rule="nonzero"/></clipPath><clipPath id="73b03d6589"><path d="M 303.457031 41.351562 L 376.964844 13.464844 L 419.457031 125.476562 L 345.949219 153.363281 Z M 303.457031 41.351562 " clip-rule="nonzero"/></clipPath><clipPath id="1fee5a8ded"><path d="M 303.457031 41.351562 L 376.964844 13.464844 L 419.457031 125.476562 L 345.949219 153.363281 Z M 303.457031 41.351562 " clip-rule="nonzero"/></clipPath><clipPath id="b93db72da6"><path d="M 331 45 L 371 45 L 371 73 L 331 73 Z M 331 45 " clip-rule="nonzero"/></clipPath><clipPath id="d0a0386de1"><path d="M 303.457031 41.351562 L 376.964844 13.464844 L 419.457031 125.476562 L 345.949219 153.363281 Z M 303.457031 41.351562 " clip-rule="nonzero"/></clipPath><clipPath id="fa3868716d"><path d="M 303.457031 41.351562 L 376.964844 13.464844 L 419.457031 125.476562 L 345.949219 153.363281 Z M 303.457031 41.351562 " clip-rule="nonzero"/></clipPath><clipPath id="881d37e91a"><path d="M 281 153 L 419 153 L 419 291 L 281 291 Z M 281 153 " clip-rule="nonzero"/></clipPath><clipPath id="3f13fe5463"><path d="M 313.222656 123.414062 L 448.097656 184.957031 L 386.554688 319.832031 L 251.679688 258.285156 Z M 313.222656 123.414062 " clip-rule="nonzero"/></clipPath><clipPath id="1627f17f02"><path d="M 313.222656 123.414062 L 448.097656 184.957031 L 386.554688 319.832031 L 251.679688 258.285156 Z M 313.222656 123.414062 " clip-rule="nonzero"/></clipPath><clipPath id="e4ba386db1"><path d="M 321 193 L 385 193 L 385 236 L 321 236 Z M 321 193 " clip-rule="nonzero"/></clipPath><clipPath id="c1437cbcf0"><path d="M 313.222656 123.414062 L 448.097656 184.957031 L 386.554688 319.832031 L 251.679688 258.285156 Z M 313.222656 123.414062 " clip-rule="nonzero"/></clipPath><clipPath id="91708c836c"><path d="M 313.222656 123.414062 L 448.097656 184.957031 L 386.554688 319.832031 L 251.679688 258.285156 Z M 313.222656 123.414062 " clip-rule="nonzero"/></clipPath><clipPath id="9acca95df1"><path d="M 305 206 L 388 206 L 388 252 L 305 252 Z M 305 206 " clip-rule="nonzero"/></clipPath><clipPath id="d878f36db9"><path d="M 313.222656 123.414062 L 448.097656 184.957031 L 386.554688 319.832031 L 251.679688 258.285156 Z M 313.222656 123.414062 " clip-rule="nonzero"/></clipPath><clipPath id="18b2863a48"><path d="M 313.222656 123.414062 L 448.097656 184.957031 L 386.554688 319.832031 L 251.679688 258.285156 Z M 313.222656 123.414062 " clip-rule="nonzero"/></clipPath><clipPath id="7636c7a0b2"><path d="M 326 198 L 380 198 L 380 231 L 326 231 Z M 326 198 " clip-rule="nonzero"/></clipPath><clipPath id="1d518b8772"><path d="M 313.222656 123.414062 L 448.097656 184.957031 L 386.554688 319.832031 L 251.679688 258.285156 Z M 313.222656 123.414062 " clip-rule="nonzero"/></clipPath><clipPath id="69c4476548"><path d="M 313.222656 123.414062 L 448.097656 184.957031 L 386.554688 319.832031 L 251.679688 258.285156 Z M 313.222656 123.414062 " clip-rule="nonzero"/></clipPath><clipPath id="e5a3f18f5a"><path d="M 334 216 L 364 216 L 364 235 L 334 235 Z M 334 216 " clip-rule="nonzero"/></clipPath><clipPath id="a26a8467e5"><path d="M 313.222656 123.414062 L 448.097656 184.957031 L 386.554688 319.832031 L 251.679688 258.285156 Z M 313.222656 123.414062 " clip-rule="nonzero"/></clipPath><clipPath id="0b2544bf27"><path d="M 313.222656 123.414062 L 448.097656 184.957031 L 386.554688 319.832031 L 251.679688 258.285156 Z M 313.222656 123.414062 " clip-rule="nonzero"/></clipPath><clipPath id="009a55b7de"><path d="M 229 377.476562 L 428 377.476562 L 428 483 L 229 483 Z M 229 377.476562 " clip-rule="nonzero"/></clipPath><clipPath id="8c7eec38cd"><path d="M 80 64 L 145 64 L 145 129 L 80 129 Z M 80 64 " clip-rule="nonzero"/></clipPath><clipPath id="4ab6fa3d5c"><path d="M 88.597656 52.8125 L 156.0625 72.863281 L 136.015625 140.328125 L 68.546875 120.277344 Z M 88.597656 52.8125 " clip-rule="nonzero"/></clipPath><clipPath id="cf7005fc4a"><path d="M 88.597656 52.8125 L 156.0625 72.863281 L 136.015625 140.328125 L 68.546875 120.277344 Z M 88.597656 52.8125 " clip-rule="nonzero"/></clipPath><clipPath id="2c1cc7d51b"><path d="M 94 78 L 133 78 L 133 104 L 94 104 Z M 94 78 " clip-rule="nonzero"/></clipPath><clipPath id="0d6ff39be6"><path d="M 88.597656 52.8125 L 156.0625 72.863281 L 136.015625 140.328125 L 68.546875 120.277344 Z M 88.597656 52.8125 " clip-rule="nonzero"/></clipPath><clipPath id="de2c2f3216"><path d="M 88.597656 52.8125 L 156.0625 72.863281 L 136.015625 140.328125 L 68.546875 120.277344 Z M 88.597656 52.8125 " clip-rule="nonzero"/></clipPath><clipPath id="5b2f0e5418"><path d="M 98 82 L 130 82 L 130 100 L 98 100 Z M 98 82 " clip-rule="nonzero"/></clipPath><clipPath id="41a3bf859c"><path d="M 88.597656 52.8125 L 156.0625 72.863281 L 136.015625 140.328125 L 68.546875 120.277344 Z M 88.597656 52.8125 " clip-rule="nonzero"/></clipPath><clipPath id="df324feb6c"><path d="M 88.597656 52.8125 L 156.0625 72.863281 L 136.015625 140.328125 L 68.546875 120.277344 Z M 88.597656 52.8125 " clip-rule="nonzero"/></clipPath><clipPath id="05f328ba9b"><path d="M 84 89 L 137 89 L 137 114 L 84 114 Z M 84 89 " clip-rule="nonzero"/></clipPath><clipPath id="611f0973ef"><path d="M 88.597656 52.8125 L 156.0625 72.863281 L 136.015625 140.328125 L 68.546875 120.277344 Z M 88.597656 52.8125 " clip-rule="nonzero"/></clipPath><clipPath id="e3f99d6d73"><path d="M 88.597656 52.8125 L 156.0625 72.863281 L 136.015625 140.328125 L 68.546875 120.277344 Z M 88.597656 52.8125 " clip-rule="nonzero"/></clipPath><clipPath id="7d169a2f73"><path d="M 93 97 L 128 97 L 128 112 L 93 112 Z M 93 97 " clip-rule="nonzero"/></clipPath><clipPath id="4635947109"><path d="M 88.597656 52.8125 L 156.0625 72.863281 L 136.015625 140.328125 L 68.546875 120.277344 Z M 88.597656 52.8125 " clip-rule="nonzero"/></clipPath><clipPath id="9a2005676e"><path d="M 88.597656 52.8125 L 156.0625 72.863281 L 136.015625 140.328125 L 68.546875 120.277344 Z M 88.597656 52.8125 " clip-rule="nonzero"/></clipPath><clipPath id="038f254d9f"><path d="M 100 183 L 292 183 L 292 381 L 100 381 Z M 100 183 " clip-rule="nonzero"/></clipPath><clipPath id="f2544572a9"><path d="M 147.371094 144.554688 L 349.125 216.332031 L 286.882812 391.28125 L 85.128906 319.5 Z M 147.371094 144.554688 " clip-rule="nonzero"/></clipPath><clipPath id="049dd9abde"><path d="M 147.371094 144.554688 L 349.125 216.332031 L 286.882812 391.28125 L 85.128906 319.5 Z M 147.371094 144.554688 " clip-rule="nonzero"/></clipPath><clipPath id="2d520ce18b"><path d="M 163 257 L 257 257 L 257 320 L 163 320 Z M 163 257 " clip-rule="nonzero"/></clipPath><clipPath id="35a50340ef"><path d="M 147.371094 144.554688 L 349.125 216.332031 L 286.882812 391.28125 L 85.128906 319.5 Z M 147.371094 144.554688 " clip-rule="nonzero"/></clipPath><clipPath id="968dd22266"><path d="M 147.371094 144.554688 L 349.125 216.332031 L 286.882812 391.28125 L 85.128906 319.5 Z M 147.371094 144.554688 " clip-rule="nonzero"/></clipPath><clipPath id="44b504d8fc"><path d="M 136 282 L 265 282 L 265 347 L 136 347 Z M 136 282 " clip-rule="nonzero"/></clipPath><clipPath id="9d970a6914"><path d="M 147.371094 144.554688 L 349.125 216.332031 L 286.882812 391.28125 L 85.128906 319.5 Z M 147.371094 144.554688 " clip-rule="nonzero"/></clipPath><clipPath id="be6a373499"><path d="M 147.371094 144.554688 L 349.125 216.332031 L 286.882812 391.28125 L 85.128906 319.5 Z M 147.371094 144.554688 " clip-rule="nonzero"/></clipPath><clipPath id="9c2ba61fb2"><path d="M 172 266 L 248 266 L 248 323 L 172 323 Z M 172 266 " clip-rule="nonzero"/></clipPath><clipPath id="38da1b12eb"><path d="M 147.371094 144.554688 L 349.125 216.332031 L 286.882812 391.28125 L 85.128906 319.5 Z M 147.371094 144.554688 " clip-rule="nonzero"/></clipPath><clipPath id="10848a95ab"><path d="M 147.371094 144.554688 L 349.125 216.332031 L 286.882812 391.28125 L 85.128906 319.5 Z M 147.371094 144.554688 " clip-rule="nonzero"/></clipPath><clipPath id="e7ea9df3de"><path d="M 181 240 L 259 240 L 259 273 L 181 273 Z M 181 240 " clip-rule="nonzero"/></clipPath><clipPath id="f84242992a"><path d="M 147.371094 144.554688 L 349.125 216.332031 L 286.882812 391.28125 L 85.128906 319.5 Z M 147.371094 144.554688 " clip-rule="nonzero"/></clipPath><clipPath id="b7fe41317c"><path d="M 147.371094 144.554688 L 349.125 216.332031 L 286.882812 391.28125 L 85.128906 319.5 Z M 147.371094 144.554688 " clip-rule="nonzero"/></clipPath><clipPath id="b8f405df5d"><path d="M 66 143 L 162 143 L 162 239 L 66 239 Z M 66 143 " clip-rule="nonzero"/></clipPath><clipPath id="ade226fd9b"><path d="M 40.613281 168.136719 L 137.375 117.261719 L 188.246094 214.023438 L 91.488281 264.894531 Z M 40.613281 168.136719 " clip-rule="nonzero"/></clipPath><clipPath id="6ee39fe9a5"><path d="M 40.613281 168.136719 L 137.375 117.261719 L 188.246094 214.023438 L 91.488281 264.894531 Z M 40.613281 168.136719 " clip-rule="nonzero"/></clipPath><clipPath id="4f37c55024"><path d="M 89 169 L 135 169 L 135 203 L 89 203 Z M 89 169 " clip-rule="nonzero"/></clipPath><clipPath id="6b6c6a807b"><path d="M 40.613281 168.136719 L 137.375 117.261719 L 188.246094 214.023438 L 91.488281 264.894531 Z M 40.613281 168.136719 " clip-rule="nonzero"/></clipPath><clipPath id="e97ea99eb5"><path d="M 40.613281 168.136719 L 137.375 117.261719 L 188.246094 214.023438 L 91.488281 264.894531 Z M 40.613281 168.136719 " clip-rule="nonzero"/></clipPath><clipPath id="0957a1cdf1"><path d="M 87 177 L 147 177 L 147 215 L 87 215 Z M 87 177 " clip-rule="nonzero"/></clipPath><clipPath id="6407011a11"><path d="M 40.613281 168.136719 L 137.375 117.261719 L 188.246094 214.023438 L 91.488281 264.894531 Z M 40.613281 168.136719 " clip-rule="nonzero"/></clipPath><clipPath id="2065e628fe"><path d="M 40.613281 168.136719 L 137.375 117.261719 L 188.246094 214.023438 L 91.488281 264.894531 Z M 40.613281 168.136719 " clip-rule="nonzero"/></clipPath><clipPath id="f02b6085a1"><path d="M 92 173 L 131 173 L 131 200 L 92 200 Z M 92 173 " clip-rule="nonzero"/></clipPath><clipPath id="a515a2a973"><path d="M 40.613281 168.136719 L 137.375 117.261719 L 188.246094 214.023438 L 91.488281 264.894531 Z M 40.613281 168.136719 " clip-rule="nonzero"/></clipPath><clipPath id="0dee97e80d"><path d="M 40.613281 168.136719 L 137.375 117.261719 L 188.246094 214.023438 L 91.488281 264.894531 Z M 40.613281 168.136719 " clip-rule="nonzero"/></clipPath><clipPath id="a9b9c3645c"><path d="M 105 186 L 127 186 L 127 201 L 105 201 Z M 105 186 " clip-rule="nonzero"/></clipPath><clipPath id="5d59ab47f2"><path d="M 40.613281 168.136719 L 137.375 117.261719 L 188.246094 214.023438 L 91.488281 264.894531 Z M 40.613281 168.136719 " clip-rule="nonzero"/></clipPath><clipPath id="1a6bc81d8d"><path d="M 40.613281 168.136719 L 137.375 117.261719 L 188.246094 214.023438 L 91.488281 264.894531 Z M 40.613281 168.136719 " clip-rule="nonzero"/></clipPath><clipPath id="66e1228dff"><path d="M 127 364 L 221 364 L 221 464 L 127 464 Z M 127 364 " clip-rule="nonzero"/></clipPath><clipPath id="3be4813a96"><path d="M 114.355469 380.277344 L 201.550781 350.636719 L 232.640625 442.085938 L 145.445312 471.726562 Z M 114.355469 380.277344 " clip-rule="nonzero"/></clipPath><clipPath id="efa62f3ae9"><path d="M 114.355469 380.277344 L 201.550781 350.636719 L 232.640625 442.085938 L 145.445312 471.726562 Z M 114.355469 380.277344 " clip-rule="nonzero"/></clipPath><clipPath id="3588a40b13"><path d="M 152 392 L 191 392 L 191 419 L 152 419 Z M 152 392 " clip-rule="nonzero"/></clipPath><clipPath id="ded4551a23"><path d="M 114.355469 380.277344 L 201.550781 350.636719 L 232.640625 442.085938 L 145.445312 471.726562 Z M 114.355469 380.277344 " clip-rule="nonzero"/></clipPath><clipPath id="02e1c1cd52"><path d="M 114.355469 380.277344 L 201.550781 350.636719 L 232.640625 442.085938 L 145.445312 471.726562 Z M 114.355469 380.277344 " clip-rule="nonzero"/></clipPath><clipPath id="3811368f2b"><path d="M 148 403 L 203 403 L 203 430 L 148 430 Z M 148 403 " clip-rule="nonzero"/></clipPath><clipPath id="2338bccba8"><path d="M 114.355469 380.277344 L 201.550781 350.636719 L 232.640625 442.085938 L 145.445312 471.726562 Z M 114.355469 380.277344 " clip-rule="nonzero"/></clipPath><clipPath id="8a9a7a44ec"><path d="M 114.355469 380.277344 L 201.550781 350.636719 L 232.640625 442.085938 L 145.445312 471.726562 Z M 114.355469 380.277344 " clip-rule="nonzero"/></clipPath><clipPath id="763812cb39"><path d="M 156 408 L 195 408 L 195 428 L 156 428 Z M 156 408 " clip-rule="nonzero"/></clipPath><clipPath id="77056897c0"><path d="M 114.355469 380.277344 L 201.550781 350.636719 L 232.640625 442.085938 L 145.445312 471.726562 Z M 114.355469 380.277344 " clip-rule="nonzero"/></clipPath><clipPath id="9d50729efd"><path d="M 114.355469 380.277344 L 201.550781 350.636719 L 232.640625 442.085938 L 145.445312 471.726562 Z M 114.355469 380.277344 " clip-rule="nonzero"/></clipPath><clipPath id="a73314c92e"><path d="M 155 396 L 188 396 L 188 415 L 155 415 Z M 155 396 " clip-rule="nonzero"/></clipPath><clipPath id="fb99a4b977"><path d="M 114.355469 380.277344 L 201.550781 350.636719 L 232.640625 442.085938 L 145.445312 471.726562 Z M 114.355469 380.277344 " clip-rule="nonzero"/></clipPath><clipPath id="9d9e0af116"><path d="M 114.355469 380.277344 L 201.550781 350.636719 L 232.640625 442.085938 L 145.445312 471.726562 Z M 114.355469 380.277344 " clip-rule="nonzero"/></clipPath><clipPath id="15a51bdfb7"><path d="M 11 331 L 125 331 L 125 480 L 11 480 Z M 11 331 " clip-rule="nonzero"/></clipPath><clipPath id="18a26f0624"><path d="M 40.726562 320.027344 L 135.84375 346.886719 L 95.148438 491 L 0.03125 464.140625 Z M 40.726562 320.027344 " clip-rule="nonzero"/></clipPath><clipPath id="5542ba1aef"><path d="M 40.726562 320.027344 L 135.84375 346.886719 L 95.148438 491 L 0.03125 464.140625 Z M 40.726562 320.027344 " clip-rule="nonzero"/></clipPath><clipPath id="c1bd15168f"><path d="M 35 367 L 112 367 L 112 401 L 35 401 Z M 35 367 " clip-rule="nonzero"/></clipPath><clipPath id="a41295d08b"><path d="M 40.726562 320.027344 L 135.84375 346.886719 L 95.148438 491 L 0.03125 464.140625 Z M 40.726562 320.027344 " clip-rule="nonzero"/></clipPath><clipPath id="8de716166f"><path d="M 40.726562 320.027344 L 135.84375 346.886719 L 95.148438 491 L 0.03125 464.140625 Z M 40.726562 320.027344 " clip-rule="nonzero"/></clipPath><clipPath id="44d725403c"><path d="M 53 358 L 104 358 L 104 392 L 53 392 Z M 53 358 " clip-rule="nonzero"/></clipPath><clipPath id="a38e0622c4"><path d="M 40.726562 320.027344 L 135.84375 346.886719 L 95.148438 491 L 0.03125 464.140625 Z M 40.726562 320.027344 " clip-rule="nonzero"/></clipPath><clipPath id="aca8255693"><path d="M 40.726562 320.027344 L 135.84375 346.886719 L 95.148438 491 L 0.03125 464.140625 Z M 40.726562 320.027344 " clip-rule="nonzero"/></clipPath></defs><g clip-path="url(#fd6b664ec3)"><g clip-path="url(#54ca7bbfff)"><g clip-path="url(#10111d55f3)"><path fill="#f69aa2" d="M 283.40625 125.03125 C 288.222656 132.007812 290.4375 140.785156 288.953125 149.800781 C 285.90625 168.328125 268.398438 180.886719 249.871094 177.835938 C 235.941406 175.546875 225.402344 165.101562 222.328125 152.191406 C 215.144531 162.9375 202.121094 169.136719 188.511719 166.898438 C 169.988281 163.847656 157.425781 146.339844 160.476562 127.8125 C 161.925781 119.015625 166.664062 111.5625 173.171875 106.484375 C 162.164062 99.332031 155.808594 86.136719 158.070312 72.382812 C 161.121094 53.859375 178.628906 41.296875 197.15625 44.347656 C 200.007812 44.816406 202.691406 45.625 205.179688 46.726562 C 205.175781 44.75 205.285156 42.757812 205.613281 40.761719 C 208.664062 22.234375 226.171875 9.675781 244.695312 12.726562 C 263.222656 15.773438 275.785156 33.28125 272.734375 51.808594 C 272.363281 54.054688 271.792969 56.191406 271.019531 58.222656 C 274.472656 57.695312 278.066406 57.664062 281.734375 58.265625 C 300.261719 61.316406 312.820312 78.824219 309.773438 97.351562 C 307.410156 111.488281 296.613281 122.152344 283.40625 125.03125 Z M 283.40625 125.03125 " fill-opacity="1" fill-rule="nonzero"/></g></g></g><g clip-path="url(#fdd9d398d2)"><g clip-path="url(#edbf769a3b)"><g clip-path="url(#744f1e6d58)"><path fill="#f5f5ef" d="M 232.722656 82.804688 C 231.292969 91.496094 223.085938 97.355469 214.425781 95.929688 C 205.769531 94.503906 199.875 86.289062 201.300781 77.632812 C 202.726562 68.976562 210.941406 63.082031 219.597656 64.507812 C 228.257812 65.929688 234.148438 74.148438 232.722656 82.804688 Z M 253.980469 70.164062 C 245.285156 68.734375 237.105469 74.632812 235.679688 83.289062 C 234.257812 91.949219 240.148438 100.164062 248.808594 101.585938 C 257.464844 103.011719 265.679688 97.121094 267.105469 88.460938 C 268.53125 79.804688 262.636719 71.589844 253.980469 70.164062 Z M 253.980469 70.164062 " fill-opacity="1" fill-rule="nonzero"/></g></g></g><g clip-path="url(#11d82acece)"><g clip-path="url(#7781d01402)"><g clip-path="url(#62db9f181f)"><path fill="#ff7f1d" d="M 277.222656 109.703125 C 276.335938 115.082031 271.230469 118.746094 265.851562 117.859375 C 260.472656 116.972656 256.8125 111.871094 257.699219 106.492188 C 258.582031 101.109375 263.6875 97.449219 269.066406 98.335938 C 274.445312 99.222656 278.105469 104.324219 277.222656 109.703125 Z M 196.238281 86.386719 C 190.859375 85.5 185.753906 89.160156 184.871094 94.542969 C 183.984375 99.921875 187.644531 105.023438 193.023438 105.910156 C 198.40625 106.796875 203.507812 103.132812 204.394531 97.753906 C 205.285156 92.339844 201.652344 87.277344 196.238281 86.386719 Z M 196.238281 86.386719 " fill-opacity="1" fill-rule="nonzero"/></g></g></g><g clip-path="url(#dd45f8dca0)"><g clip-path="url(#6a7a43bd51)"><g clip-path="url(#ecad281b10)"><path fill="#2e2e2e" d="M 229.1875 118.519531 C 214.652344 116.128906 204.476562 106.367188 199.542969 100.542969 C 198.164062 98.925781 198.378906 96.507812 199.996094 95.128906 C 201.613281 93.746094 204.03125 93.960938 205.410156 95.578125 C 213.894531 105.613281 232.035156 120.125 258.636719 104.339844 C 260.460938 103.25 262.816406 103.855469 263.90625 105.683594 C 264.996094 107.507812 264.386719 109.859375 262.5625 110.949219 C 249.78125 118.582031 238.558594 120.0625 229.1875 118.519531 Z M 229.1875 118.519531 " fill-opacity="1" fill-rule="nonzero"/></g></g></g><g clip-path="url(#a5aa52fa62)"><g clip-path="url(#28fda615f9)"><g clip-path="url(#74cb217443)"><path fill="#2e2e2e" d="M 226.5625 81.789062 C 225.691406 87.0625 220.707031 90.667969 215.398438 89.796875 C 210.128906 88.929688 206.519531 83.945312 207.394531 78.636719 C 208.265625 73.328125 213.246094 69.753906 218.554688 70.628906 C 223.863281 71.503906 227.429688 76.515625 226.5625 81.789062 Z M 252.96875 76.292969 C 247.699219 75.425781 242.683594 78.992188 241.808594 84.300781 C 240.9375 89.609375 244.507812 94.585938 249.816406 95.460938 C 255.089844 96.328125 260.101562 92.761719 260.976562 87.453125 C 261.851562 82.144531 258.242188 77.160156 252.96875 76.292969 Z M 252.96875 76.292969 " fill-opacity="1" fill-rule="nonzero"/></g></g></g><g clip-path="url(#663e632868)"><g clip-path="url(#e548ba49a9)"><g clip-path="url(#332908b57e)"><path fill="#ffb72c" d="M 382.839844 139.359375 C 362.558594 147.050781 339.644531 136.742188 331.949219 116.457031 L 317.496094 78.363281 C 309.804688 58.078125 320.113281 35.164062 340.398438 27.472656 C 360.679688 19.777344 383.59375 30.085938 391.289062 50.371094 L 405.742188 88.464844 C 413.4375 108.75 403.125 131.664062 382.839844 139.359375 Z M 382.839844 139.359375 " fill-opacity="1" fill-rule="nonzero"/></g></g></g><g clip-path="url(#7d426e5a87)"><g clip-path="url(#73b03d6589)"><g clip-path="url(#1fee5a8ded)"><path fill="#ff7f1d" d="M 384.53125 55.535156 C 385.832031 58.957031 384.109375 62.78125 380.6875 64.078125 C 377.265625 65.378906 373.441406 63.65625 372.140625 60.234375 C 370.84375 56.8125 372.566406 52.988281 375.988281 51.6875 C 379.410156 50.390625 383.234375 52.113281 384.53125 55.535156 Z M 329.800781 69.210938 C 326.375 70.507812 324.65625 74.332031 325.953125 77.757812 C 327.253906 81.179688 331.078125 82.898438 334.5 81.601562 C 337.921875 80.300781 339.632812 76.453125 338.34375 73.054688 C 337.054688 69.660156 333.222656 67.914062 329.800781 69.210938 Z M 329.800781 69.210938 " fill-opacity="1" fill-rule="nonzero"/></g></g></g><g clip-path="url(#b93db72da6)"><g clip-path="url(#d0a0386de1)"><g clip-path="url(#fa3868716d)"><path fill="#2e2e2e" d="M 343.089844 64.855469 C 338.269531 66.683594 333.238281 63.734375 332.683594 63.402344 C 331.3125 62.578125 330.894531 60.792969 331.742188 59.414062 C 332.574219 58.070312 334.347656 57.625 335.71875 58.449219 C 336.53125 58.941406 339.28125 60.15625 341.109375 59.40625 C 342.273438 58.933594 343.125 57.640625 343.691406 55.511719 C 344.101562 53.957031 345.667969 53.046875 347.226562 53.457031 C 348.78125 53.867188 349.691406 55.433594 349.28125 56.992188 C 347.960938 61.949219 345.269531 63.96875 343.230469 64.773438 C 343.214844 64.804688 343.140625 64.835938 343.089844 64.855469 Z M 364.125 56.875 C 366.152344 56.046875 368.855469 54.050781 370.171875 49.09375 C 370.582031 47.539062 369.648438 45.976562 368.117188 45.558594 C 366.5625 45.148438 364.992188 46.058594 364.582031 47.613281 C 364.035156 49.707031 363.167969 51.039062 362.003906 51.507812 C 360.148438 52.269531 357.425781 51.042969 356.609375 50.550781 C 355.242188 49.730469 353.484375 50.140625 352.632812 51.519531 C 351.8125 52.886719 352.230469 54.671875 353.574219 55.503906 C 354.140625 55.863281 359.164062 58.785156 363.984375 56.957031 C 364.023438 56.914062 364.074219 56.894531 364.125 56.875 Z M 357.617188 71.886719 C 359.648438 71.0625 362.347656 69.066406 363.667969 64.105469 C 364.078125 62.550781 363.144531 60.992188 361.613281 60.570312 C 360.054688 60.160156 358.488281 61.070312 358.078125 62.625 C 357.527344 64.722656 356.660156 66.050781 355.496094 66.519531 C 353.667969 67.273438 350.917969 66.054688 350.105469 65.566406 C 348.734375 64.742188 346.976562 65.152344 346.128906 66.53125 C 345.304688 67.902344 345.722656 69.683594 347.070312 70.515625 C 347.632812 70.875 352.65625 73.796875 357.476562 71.96875 C 357.519531 71.925781 357.566406 71.90625 357.617188 71.886719 Z M 357.617188 71.886719 " fill-opacity="1" fill-rule="nonzero"/></g></g></g><g clip-path="url(#881d37e91a)"><g clip-path="url(#3f13fe5463)"><g clip-path="url(#1627f17f02)"><path fill="#05a552" d="M 413.742188 253.582031 L 328.261719 289.6875 C 324.300781 291.363281 319.730469 289.492188 318.054688 285.53125 L 281.949219 200.054688 C 280.273438 196.09375 282.144531 191.523438 286.105469 189.847656 L 371.582031 153.742188 C 375.542969 152.066406 380.117188 153.9375 381.792969 157.898438 L 417.894531 243.375 C 419.574219 247.335938 417.703125 251.90625 413.742188 253.582031 Z M 413.742188 253.582031 " fill-opacity="1" fill-rule="nonzero"/></g></g></g><g clip-path="url(#e4ba386db1)"><g clip-path="url(#c1437cbcf0)"><g clip-path="url(#91708c836c)"><path fill="#ffffff" d="M 345.808594 211.882812 C 342.878906 218.300781 335.3125 221.101562 328.921875 218.183594 C 322.53125 215.269531 319.703125 207.691406 322.617188 201.300781 C 325.535156 194.90625 333.113281 192.078125 339.503906 194.996094 C 345.894531 197.914062 348.738281 205.460938 345.808594 211.882812 Z M 377.230469 211.421875 C 370.808594 208.492188 363.261719 211.332031 360.347656 217.726562 C 357.429688 224.117188 360.257812 231.695312 366.652344 234.609375 C 373.042969 237.527344 380.617188 234.699219 383.535156 228.304688 C 386.453125 221.914062 383.652344 214.351562 377.230469 211.421875 Z M 377.230469 211.421875 " fill-opacity="1" fill-rule="nonzero"/></g></g></g><g clip-path="url(#9acca95df1)"><g clip-path="url(#d878f36db9)"><g clip-path="url(#18b2863a48)"><path fill="#05a552" d="M 386.917969 246.875 C 385.097656 250.859375 380.421875 252.605469 376.4375 250.785156 C 372.453125 248.96875 370.710938 244.292969 372.527344 240.308594 C 374.34375 236.324219 379.019531 234.578125 383.003906 236.398438 C 386.972656 238.171875 388.734375 242.890625 386.917969 246.875 Z M 316.898438 206.988281 C 312.914062 205.167969 308.238281 206.914062 306.421875 210.898438 C 304.601562 214.882812 306.347656 219.558594 310.332031 221.375 C 314.316406 223.195312 318.992188 221.449219 320.808594 217.464844 C 322.628906 213.480469 320.882812 208.804688 316.898438 206.988281 Z M 316.898438 206.988281 " fill-opacity="1" fill-rule="nonzero"/></g></g></g><g clip-path="url(#7636c7a0b2)"><g clip-path="url(#1d518b8772)"><g clip-path="url(#69c4476548)"><path fill="#2e2e2e" d="M 341.289062 209.820312 C 339.511719 213.714844 334.878906 215.441406 330.984375 213.664062 C 327.089844 211.886719 325.359375 207.257812 327.136719 203.363281 C 328.914062 199.46875 333.546875 197.738281 337.441406 199.515625 C 341.335938 201.292969 343.078125 205.894531 341.289062 209.820312 Z M 375.167969 215.941406 C 371.273438 214.164062 366.644531 215.890625 364.867188 219.785156 C 363.089844 223.679688 364.816406 228.3125 368.710938 230.089844 C 372.605469 231.867188 377.238281 230.140625 379.015625 226.246094 C 380.792969 222.351562 379.066406 217.71875 375.167969 215.941406 Z M 375.167969 215.941406 " fill-opacity="1" fill-rule="nonzero"/></g></g></g><g clip-path="url(#e5a3f18f5a)"><g clip-path="url(#a26a8467e5)"><g clip-path="url(#0b2544bf27)"><path fill="#2e2e2e" d="M 345.253906 232.929688 C 344.988281 232.808594 344.71875 232.683594 344.464844 232.53125 C 337.089844 228.699219 334.914062 220.488281 334.8125 220.152344 C 334.386719 218.488281 335.394531 216.753906 337.058594 216.332031 C 338.726562 215.90625 340.460938 216.910156 340.882812 218.578125 C 340.933594 218.707031 342.527344 224.5 347.382812 227.003906 C 350.585938 228.644531 354.605469 228.574219 359.410156 226.78125 C 361.054688 226.167969 362.839844 226.980469 363.453125 228.625 C 364.070312 230.269531 363.253906 232.054688 361.609375 232.667969 C 355.449219 234.992188 349.953125 235.074219 345.253906 232.929688 Z M 345.253906 232.929688 " fill-opacity="1" fill-rule="nonzero"/></g></g></g><g clip-path="url(#009a55b7de)"><path fill="#ff9441" d="M 259.890625 482.839844 C 237.929688 482.839844 223.132812 460.246094 232.035156 440.1875 C 248.375 403.230469 285.371094 377.476562 328.378906 377.476562 C 371.386719 377.476562 408.378906 403.230469 424.761719 440.1875 C 433.664062 460.246094 418.863281 482.839844 396.90625 482.839844 Z M 259.890625 482.839844 " fill-opacity="1" fill-rule="nonzero"/></g><path fill="#ffffff" d="M 326.796875 419.574219 C 326.796875 428.949219 319.199219 436.546875 309.820312 436.546875 C 300.445312 436.546875 292.847656 428.949219 292.847656 419.574219 C 292.847656 410.195312 300.445312 402.597656 309.820312 402.597656 C 319.199219 402.597656 326.796875 410.195312 326.796875 419.574219 Z M 346.972656 402.597656 C 337.597656 402.597656 330 410.195312 330 419.574219 C 330 428.949219 337.597656 436.546875 346.972656 436.546875 C 356.351562 436.546875 363.949219 428.949219 363.949219 419.574219 C 363.949219 410.195312 356.351562 402.597656 346.972656 402.597656 Z M 346.972656 402.597656 " fill-opacity="1" fill-rule="nonzero"/><path fill="#2e2e2e" d="M 328.101562 458.386719 C 319.832031 458.386719 313.144531 451.660156 313.144531 443.429688 C 313.144531 435.160156 319.871094 428.476562 328.101562 428.476562 C 336.371094 428.476562 343.058594 435.203125 343.058594 443.429688 C 343.058594 451.660156 336.371094 458.386719 328.101562 458.386719 Z M 328.101562 436.625 C 324.34375 436.625 321.296875 439.671875 321.296875 443.429688 C 321.296875 447.191406 324.34375 450.234375 328.101562 450.234375 C 331.859375 450.234375 334.90625 447.191406 334.90625 443.429688 C 334.90625 439.671875 331.859375 436.625 328.101562 436.625 Z M 328.101562 436.625 " fill-opacity="1" fill-rule="nonzero"/><path fill="#ff9441" d="M 378.308594 440.1875 C 378.308594 446.003906 373.601562 450.75 367.746094 450.75 C 361.929688 450.75 357.183594 446.042969 357.183594 440.1875 C 357.183594 434.332031 361.890625 429.621094 367.746094 429.621094 C 373.5625 429.621094 378.308594 434.371094 378.308594 440.1875 Z M 289.050781 429.621094 C 283.234375 429.621094 278.484375 434.332031 278.484375 440.1875 C 278.484375 446.042969 283.195312 450.75 289.050781 450.75 C 294.90625 450.75 299.613281 446.042969 299.613281 440.1875 C 299.613281 434.332031 294.867188 429.621094 289.050781 429.621094 Z M 289.050781 429.621094 " fill-opacity="1" fill-rule="nonzero"/><path fill="#2e2e2e" d="M 320.148438 419.574219 C 320.148438 425.308594 315.519531 429.9375 309.78125 429.9375 C 304.046875 429.9375 299.417969 425.308594 299.417969 419.574219 C 299.417969 413.835938 304.046875 409.207031 309.78125 409.207031 C 315.519531 409.207031 320.148438 413.835938 320.148438 419.574219 Z M 346.972656 409.207031 C 341.238281 409.207031 336.609375 413.835938 336.609375 419.574219 C 336.609375 425.308594 341.238281 429.9375 346.972656 429.9375 C 352.710938 429.9375 357.339844 425.308594 357.339844 419.574219 C 357.339844 413.835938 352.710938 409.207031 346.972656 409.207031 Z M 346.972656 409.207031 " fill-opacity="1" fill-rule="nonzero"/><g clip-path="url(#8c7eec38cd)"><g clip-path="url(#4ab6fa3d5c)"><g clip-path="url(#cf7005fc4a)"><path fill="#84caed" d="M 140.300781 81.238281 C 148.703125 96.765625 142.933594 116.183594 127.414062 124.605469 C 111.890625 133.023438 92.507812 127.265625 84.105469 111.734375 C 75.703125 96.207031 81.472656 76.785156 96.992188 68.367188 C 112.515625 59.949219 131.898438 65.695312 140.300781 81.238281 Z M 140.300781 81.238281 " fill-opacity="1" fill-rule="nonzero"/></g></g></g><g clip-path="url(#2c1cc7d51b)"><g clip-path="url(#0d6ff39be6)"><g clip-path="url(#de2c2f3216)"><path fill="#ffffff" d="M 113.003906 90.714844 C 111.550781 95.613281 106.402344 98.398438 101.507812 96.945312 C 96.609375 95.488281 93.820312 90.34375 95.277344 85.445312 C 96.730469 80.546875 101.878906 77.761719 106.773438 79.214844 C 111.671875 80.671875 114.460938 85.816406 113.003906 90.714844 Z M 126.167969 84.980469 C 121.273438 83.523438 116.125 86.3125 114.671875 91.210938 C 113.214844 96.105469 116.003906 101.253906 120.902344 102.707031 C 125.796875 104.164062 130.945312 101.375 132.398438 96.476562 C 133.855469 91.582031 131.066406 86.433594 126.167969 84.980469 Z M 126.167969 84.980469 " fill-opacity="1" fill-rule="nonzero"/></g></g></g><g clip-path="url(#5b2f0e5418)"><g clip-path="url(#41a3bf859c)"><g clip-path="url(#df324feb6c)"><path fill="#2e2e2e" d="M 109.550781 89.6875 C 108.664062 92.675781 105.523438 94.367188 102.546875 93.484375 C 99.574219 92.597656 97.871094 89.453125 98.753906 86.480469 C 99.636719 83.503906 102.78125 81.800781 105.757812 82.683594 C 108.734375 83.566406 110.441406 86.699219 109.550781 89.6875 Z M 125.140625 88.445312 C 122.152344 87.554688 119.019531 89.261719 118.136719 92.238281 C 117.25 95.214844 118.957031 98.359375 121.929688 99.242188 C 124.90625 100.128906 128.050781 98.421875 128.933594 95.449219 C 129.820312 92.472656 128.128906 89.332031 125.140625 88.445312 Z M 125.140625 88.445312 " fill-opacity="1" fill-rule="nonzero"/></g></g></g><g clip-path="url(#05f328ba9b)"><g clip-path="url(#611f0973ef)"><g clip-path="url(#e3f99d6d73)"><path fill="#84caed" d="M 136.6875 109.449219 C 135.785156 112.488281 132.589844 114.21875 129.554688 113.316406 C 126.519531 112.414062 124.789062 109.21875 125.691406 106.183594 C 126.59375 103.148438 129.785156 101.417969 132.820312 102.320312 C 135.859375 103.222656 137.589844 106.414062 136.6875 109.449219 Z M 91.761719 90.105469 C 88.722656 89.203125 85.53125 90.929688 84.628906 93.96875 C 83.726562 97.003906 85.457031 100.195312 88.492188 101.097656 C 91.527344 102 94.722656 100.273438 95.625 97.234375 C 96.523438 94.210938 94.796875 91.007812 91.761719 90.105469 Z M 91.761719 90.105469 " fill-opacity="1" fill-rule="nonzero"/></g></g></g><g clip-path="url(#7d169a2f73)"><g clip-path="url(#4635947109)"><g clip-path="url(#9a2005676e)"><path fill="#2e2e2e" d="M 126.617188 109.203125 C 108.199219 117.203125 97.800781 105.515625 93.859375 99.457031 C 93.109375 98.300781 94.207031 96.839844 95.53125 97.234375 L 126.457031 106.425781 C 127.785156 106.804688 127.890625 108.648438 126.617188 109.203125 Z M 126.617188 109.203125 " fill-opacity="1" fill-rule="nonzero"/></g></g></g><g clip-path="url(#038f254d9f)"><g clip-path="url(#f2544572a9)"><g clip-path="url(#049dd9abde)"><path fill="#3a5dc4" d="M 217.460938 190.5 C 234.742188 175.78125 261.433594 185.277344 265.535156 207.601562 L 278.203125 276.535156 L 290.875 345.464844 C 294.976562 367.792969 273.390625 386.152344 252.003906 378.542969 L 186.011719 355.066406 L 119.980469 331.570312 C 98.59375 323.964844 93.46875 296.058594 110.738281 281.375 L 164.097656 235.9375 Z M 217.460938 190.5 " fill-opacity="1" fill-rule="nonzero"/></g></g></g><g clip-path="url(#2d520ce18b)"><g clip-path="url(#35a50340ef)"><g clip-path="url(#968dd22266)"><path fill="#ffffff" d="M 207.644531 287.820312 C 203.414062 299.714844 190.347656 305.925781 178.449219 301.691406 C 166.554688 297.460938 160.34375 284.394531 164.578125 272.496094 C 168.808594 260.601562 181.875 254.390625 193.773438 258.625 C 205.667969 262.855469 211.878906 275.921875 207.644531 287.820312 Z M 240.867188 275.378906 C 228.972656 271.148438 215.90625 277.355469 211.671875 289.253906 C 207.441406 301.148438 213.648438 314.214844 225.546875 318.449219 C 237.441406 322.679688 250.507812 316.472656 254.742188 304.574219 C 258.972656 292.679688 252.765625 279.613281 240.867188 275.378906 Z M 240.867188 275.378906 " fill-opacity="1" fill-rule="nonzero"/></g></g></g><g clip-path="url(#44b504d8fc)"><g clip-path="url(#9d970a6914)"><g clip-path="url(#be6a373499)"><path fill="#3a5dc4" d="M 263.589844 337.160156 C 260.964844 344.539062 252.851562 348.394531 245.472656 345.769531 C 238.09375 343.144531 234.238281 335.027344 236.863281 327.648438 C 239.488281 320.269531 247.601562 316.414062 254.980469 319.039062 C 262.359375 321.664062 266.214844 329.78125 263.589844 337.160156 Z M 155.253906 283.558594 C 147.878906 280.933594 139.761719 284.789062 137.136719 292.167969 C 134.511719 299.546875 138.367188 307.664062 145.746094 310.289062 C 153.125 312.914062 161.242188 309.058594 163.867188 301.679688 C 166.492188 294.300781 162.632812 286.183594 155.253906 283.558594 Z M 155.253906 283.558594 " fill-opacity="1" fill-rule="nonzero"/></g></g></g><g clip-path="url(#9c2ba61fb2)"><g clip-path="url(#38da1b12eb)"><g clip-path="url(#10848a95ab)"><path fill="#2e2e2e" d="M 199.210938 284.820312 C 196.640625 292.046875 188.664062 295.867188 181.398438 293.285156 C 174.132812 290.699219 170.351562 282.738281 172.933594 275.472656 C 175.519531 268.207031 183.480469 264.421875 190.75 267.007812 C 198.015625 269.589844 201.785156 277.589844 199.210938 284.820312 Z M 237.867188 283.8125 C 230.640625 281.242188 222.640625 285.011719 220.054688 292.277344 C 217.46875 299.542969 221.253906 307.507812 228.519531 310.089844 C 235.785156 312.675781 243.746094 308.890625 246.332031 301.625 C 248.917969 294.359375 245.132812 286.398438 237.867188 283.8125 Z M 200.148438 321.882812 L 217.070312 316.28125 C 219.324219 315.554688 220.535156 313.101562 219.808594 310.851562 C 219.082031 308.601562 216.628906 307.386719 214.378906 308.113281 L 200.625 312.679688 L 192.617188 300.371094 C 191.332031 298.386719 188.652344 297.816406 186.667969 299.101562 C 184.683594 300.390625 184.109375 303.070312 185.398438 305.054688 L 195.167969 320.152344 C 195.679688 320.972656 196.453125 321.542969 197.320312 321.851562 C 198.222656 322.171875 199.195312 322.179688 200.148438 321.882812 Z M 200.148438 321.882812 " fill-opacity="1" fill-rule="nonzero"/></g></g></g><g clip-path="url(#e7ea9df3de)"><g clip-path="url(#f84242992a)"><g clip-path="url(#b7fe41317c)"><path fill="#2e2e2e" d="M 252.601562 272.683594 L 184.421875 248.425781 C 182.203125 247.636719 181.039062 245.1875 181.828125 242.964844 C 182.617188 240.746094 185.066406 239.582031 187.289062 240.371094 L 255.46875 264.628906 C 257.6875 265.417969 258.851562 267.867188 258.0625 270.089844 C 257.273438 272.308594 254.859375 273.488281 252.601562 272.683594 Z M 252.601562 272.683594 " fill-opacity="1" fill-rule="nonzero"/></g></g></g><g clip-path="url(#b8f405df5d)"><g clip-path="url(#ade226fd9b)"><g clip-path="url(#6ee39fe9a5)"><path fill="#ff9441" d="M 161.640625 168.269531 L 144.152344 234.273438 C 143.34375 237.335938 140.195312 239.152344 137.136719 238.34375 L 71.132812 220.855469 C 68.070312 220.046875 66.253906 216.898438 67.0625 213.839844 L 84.550781 147.835938 C 85.359375 144.773438 88.503906 142.957031 91.566406 143.765625 L 157.570312 161.253906 C 160.632812 162.0625 162.449219 165.210938 161.640625 168.269531 Z M 161.640625 168.269531 " fill-opacity="1" fill-rule="nonzero"/></g></g></g><g clip-path="url(#4f37c55024)"><g clip-path="url(#6b6c6a807b)"><g clip-path="url(#e97ea99eb5)"><path fill="#ffffff" d="M 106.773438 189.019531 C 109.191406 193.617188 107.414062 199.28125 102.839844 201.6875 C 98.261719 204.09375 92.578125 202.324219 90.171875 197.75 C 87.765625 193.171875 89.53125 187.488281 94.109375 185.082031 C 98.683594 182.675781 104.355469 184.421875 106.773438 189.019531 Z M 120.660156 170.527344 C 116.0625 172.941406 114.316406 178.613281 116.722656 183.191406 C 119.128906 187.769531 124.8125 189.535156 129.390625 187.128906 C 133.964844 184.722656 135.730469 179.039062 133.328125 174.460938 C 130.921875 169.886719 125.257812 168.109375 120.660156 170.527344 Z M 120.660156 170.527344 " fill-opacity="1" fill-rule="nonzero"/></g></g></g><g clip-path="url(#0957a1cdf1)"><g clip-path="url(#6407011a11)"><g clip-path="url(#2065e628fe)"><path fill="#ff9441" d="M 145.65625 180.859375 C 147.15625 183.710938 146.0625 187.21875 143.210938 188.71875 C 140.359375 190.21875 136.851562 189.128906 135.351562 186.273438 C 133.851562 183.421875 134.945312 179.914062 137.796875 178.414062 C 140.617188 176.90625 144.15625 178.007812 145.65625 180.859375 Z M 90.90625 203.640625 C 88.054688 205.140625 86.964844 208.648438 88.460938 211.5 C 89.960938 214.351562 93.46875 215.441406 96.320312 213.941406 C 99.175781 212.441406 100.265625 208.933594 98.765625 206.082031 C 97.265625 203.230469 93.757812 202.140625 90.90625 203.640625 Z M 90.90625 203.640625 " fill-opacity="1" fill-rule="nonzero"/></g></g></g><g clip-path="url(#f02b6085a1)"><g clip-path="url(#a515a2a973)"><g clip-path="url(#0dee97e80d)"><path fill="#2e2e2e" d="M 103.539062 190.722656 C 105.003906 193.507812 103.925781 196.984375 101.136719 198.449219 C 98.347656 199.917969 94.875 198.835938 93.40625 196.046875 C 91.941406 193.257812 93.023438 189.785156 95.808594 188.320312 C 98.597656 186.851562 102.0625 187.910156 103.539062 190.722656 Z M 122.363281 173.761719 C 119.574219 175.226562 118.492188 178.703125 119.960938 181.492188 C 121.425781 184.277344 124.898438 185.359375 127.6875 183.894531 C 130.476562 182.425781 131.558594 178.953125 130.089844 176.164062 C 128.625 173.375 125.148438 172.296875 122.363281 173.761719 Z M 122.363281 173.761719 " fill-opacity="1" fill-rule="nonzero"/></g></g></g><g clip-path="url(#a9b9c3645c)"><g clip-path="url(#5d59ab47f2)"><g clip-path="url(#1a6bc81d8d)"><path fill="#2e2e2e" d="M 118.773438 198.820312 C 118.582031 198.921875 118.390625 199.023438 118.1875 199.101562 C 112.636719 201.667969 106.875 199.238281 106.636719 199.144531 C 105.476562 198.640625 104.921875 197.277344 105.425781 196.113281 C 105.925781 194.953125 107.292969 194.398438 108.453125 194.902344 C 108.550781 194.933594 112.640625 196.613281 116.285156 194.914062 C 118.683594 193.789062 120.453125 191.417969 121.574219 187.816406 C 121.957031 186.582031 123.234375 185.910156 124.46875 186.292969 C 125.703125 186.675781 126.371094 187.953125 125.988281 189.1875 C 124.566406 193.820312 122.136719 197.054688 118.773438 198.820312 Z M 118.773438 198.820312 " fill-opacity="1" fill-rule="nonzero"/></g></g></g><g clip-path="url(#66e1228dff)"><g clip-path="url(#3be4813a96)"><g clip-path="url(#efa62f3ae9)"><path fill="#05a552" d="M 209.320312 413.984375 C 213.828125 416.304688 217.46875 420.3125 219.226562 425.480469 C 222.835938 436.105469 217.144531 447.660156 206.519531 451.273438 C 198.53125 453.988281 190.03125 451.453125 184.777344 445.511719 C 184.015625 453.203125 178.898438 460.140625 171.09375 462.792969 C 160.46875 466.40625 148.914062 460.714844 145.300781 450.089844 C 143.585938 445.042969 143.984375 439.777344 145.984375 435.265625 C 138.164062 434.597656 131.097656 429.433594 128.417969 421.542969 C 124.804688 410.917969 130.496094 399.363281 141.121094 395.753906 C 142.757812 395.195312 144.398438 394.867188 146.023438 394.746094 C 145.464844 393.707031 144.957031 392.625 144.570312 391.480469 C 140.957031 380.855469 146.648438 369.300781 157.273438 365.6875 C 167.898438 362.074219 179.453125 367.765625 183.066406 378.394531 C 183.503906 379.679688 183.804688 380.96875 183.96875 382.257812 C 185.640625 381.003906 187.527344 379.976562 189.628906 379.261719 C 200.253906 375.648438 211.808594 381.339844 215.421875 391.964844 C 218.160156 400.085938 215.472656 408.75 209.320312 413.984375 Z M 209.320312 413.984375 " fill-opacity="1" fill-rule="nonzero"/></g></g></g><g clip-path="url(#3588a40b13)"><g clip-path="url(#ded4551a23)"><g clip-path="url(#02e1c1cd52)"><path fill="#f5f5ef" d="M 170.707031 406.003906 C 172.402344 410.992188 169.726562 416.390625 164.757812 418.078125 C 159.792969 419.769531 154.371094 417.097656 152.683594 412.132812 C 150.996094 407.167969 153.667969 401.746094 158.632812 400.058594 C 163.597656 398.371094 169.019531 401.039062 170.707031 406.003906 Z M 178.351562 393.355469 C 173.363281 395.046875 170.714844 400.464844 172.402344 405.429688 C 174.089844 410.394531 179.511719 413.0625 184.476562 411.375 C 189.441406 409.6875 192.113281 404.265625 190.425781 399.300781 C 188.738281 394.335938 183.316406 391.664062 178.351562 393.355469 Z M 178.351562 393.355469 " fill-opacity="1" fill-rule="nonzero"/></g></g></g><g clip-path="url(#3811368f2b)"><g clip-path="url(#2338bccba8)"><g clip-path="url(#8a9a7a44ec)"><path fill="#05a552" d="M 201.742188 407.648438 C 202.792969 410.734375 201.132812 414.101562 198.046875 415.152344 C 194.960938 416.199219 191.59375 414.542969 190.546875 411.457031 C 189.496094 408.371094 191.15625 405.003906 194.242188 403.953125 C 197.328125 402.90625 200.695312 404.5625 201.742188 407.648438 Z M 152.480469 418.171875 C 149.394531 419.222656 147.738281 422.589844 148.785156 425.675781 C 149.835938 428.761719 153.203125 430.417969 156.289062 429.371094 C 159.375 428.320312 161.03125 424.953125 159.984375 421.867188 C 158.929688 418.761719 155.585938 417.117188 152.480469 418.171875 Z M 152.480469 418.171875 " fill-opacity="1" fill-rule="nonzero"/></g></g></g><g clip-path="url(#763812cb39)"><g clip-path="url(#77056897c0)"><g clip-path="url(#9d50729efd)"><path fill="#2e2e2e" d="M 178.90625 425.832031 C 170.570312 428.664062 162.453125 426.386719 158.210938 424.703125 C 157.03125 424.242188 156.460938 422.90625 156.925781 421.722656 C 157.390625 420.539062 158.722656 419.972656 159.90625 420.4375 C 167.207031 423.332031 180.859375 425.875 190.433594 410.058594 C 191.089844 408.96875 192.5 408.625 193.589844 409.28125 C 194.679688 409.9375 195.023438 411.347656 194.367188 412.4375 C 189.777344 420.058594 184.28125 424.003906 178.90625 425.832031 Z M 178.90625 425.832031 " fill-opacity="1" fill-rule="nonzero"/></g></g></g><g clip-path="url(#a73314c92e)"><g clip-path="url(#fb99a4b977)"><g clip-path="url(#9d9e0af116)"><path fill="#2e2e2e" d="M 167.171875 407.207031 C 168.199219 410.230469 166.589844 413.535156 163.542969 414.570312 C 160.519531 415.601562 157.214844 413.988281 156.179688 410.945312 C 155.144531 407.898438 156.761719 404.613281 159.808594 403.578125 C 162.851562 402.542969 166.144531 404.183594 167.171875 407.207031 Z M 179.546875 396.867188 C 176.519531 397.894531 174.882812 401.1875 175.917969 404.234375 C 176.953125 407.277344 180.238281 408.898438 183.28125 407.863281 C 186.308594 406.832031 187.945312 403.539062 186.910156 400.496094 C 185.875 397.453125 182.570312 395.839844 179.546875 396.867188 Z M 179.546875 396.867188 " fill-opacity="1" fill-rule="nonzero"/></g></g></g><g clip-path="url(#15a51bdfb7)"><g clip-path="url(#18a26f0624)"><g clip-path="url(#5542ba1aef)"><path fill="#84caed" d="M 47.503906 477.507812 C 21.414062 470.140625 6.078125 442.738281 13.445312 416.644531 L 27.285156 367.640625 C 34.652344 341.546875 62.054688 326.210938 88.148438 333.578125 C 114.242188 340.945312 129.574219 368.351562 122.207031 394.445312 L 108.371094 443.449219 C 101 469.539062 73.597656 484.875 47.503906 477.507812 Z M 47.503906 477.507812 " fill-opacity="1" fill-rule="nonzero"/></g></g></g><g clip-path="url(#c1bd15168f)"><g clip-path="url(#a41295d08b)"><g clip-path="url(#8de716166f)"><path fill="#ff7f1d" d="M 111.582031 394.601562 C 110.335938 399.003906 105.765625 401.5625 101.363281 400.320312 C 96.957031 399.074219 94.398438 394.5 95.640625 390.097656 C 96.886719 385.695312 101.460938 383.136719 105.863281 384.378906 C 110.265625 385.625 112.824219 390.199219 111.582031 394.601562 Z M 46.445312 367.601562 C 42.042969 366.359375 37.46875 368.917969 36.226562 373.320312 C 34.984375 377.722656 37.542969 382.296875 41.945312 383.542969 C 46.347656 384.785156 50.929688 382.191406 52.164062 377.824219 C 53.398438 373.453125 50.847656 368.847656 46.445312 367.601562 Z M 46.445312 367.601562 " fill-opacity="1" fill-rule="nonzero"/></g></g></g><g clip-path="url(#44d725403c)"><g clip-path="url(#a38e0622c4)"><g clip-path="url(#aca8255693)"><path fill="#2e2e2e" d="M 63.035156 373.121094 C 56.832031 371.367188 53.972656 364.664062 53.664062 363.914062 C 52.902344 362.070312 53.808594 359.964844 55.683594 359.210938 C 57.523438 358.484375 59.632812 359.355469 60.398438 361.203125 C 60.851562 362.300781 62.703125 365.566406 65.101562 366.171875 C 66.621094 366.566406 68.4375 365.902344 70.589844 364.183594 C 72.15625 362.925781 74.410156 363.183594 75.667969 364.75 C 76.925781 366.320312 76.671875 368.574219 75.101562 369.832031 C 70.085938 373.828125 65.878906 373.855469 63.234375 373.140625 C 63.195312 373.164062 63.097656 373.136719 63.035156 373.121094 Z M 90.089844 380.761719 C 92.746094 381.441406 96.941406 381.445312 101.957031 377.449219 C 103.523438 376.191406 103.746094 373.929688 102.523438 372.371094 C 101.265625 370.800781 99.011719 370.546875 97.445312 371.800781 C 95.335938 373.496094 93.472656 374.1875 91.953125 373.792969 C 89.527344 373.175781 87.703125 369.921875 87.253906 368.820312 C 86.488281 366.972656 84.417969 366.078125 82.539062 366.832031 C 80.695312 367.59375 79.789062 369.695312 80.519531 371.535156 C 80.820312 372.3125 83.6875 378.984375 89.890625 380.738281 C 89.960938 380.722656 90.027344 380.742188 90.089844 380.761719 Z M 72.386719 390.992188 C 75.039062 391.671875 79.238281 391.675781 84.25 387.679688 C 85.820312 386.421875 86.042969 384.160156 84.816406 382.601562 C 83.5625 381.03125 81.308594 380.777344 79.738281 382.035156 C 77.628906 383.730469 75.769531 384.417969 74.25 384.023438 C 71.855469 383.417969 70 380.152344 69.546875 379.054688 C 68.785156 377.207031 66.714844 376.308594 64.835938 377.0625 C 62.988281 377.824219 62.082031 379.929688 62.8125 381.765625 C 63.113281 382.542969 65.984375 389.21875 72.183594 390.96875 C 72.257812 390.957031 72.324219 390.972656 72.386719 390.992188 Z M 72.386719 390.992188 " fill-opacity="1" fill-rule="nonzero"/></g></g></g></svg>